<svg xmlns="http://www.w3.org/2000/svg" width="600" height="400" viewBox="0 0 600 400">
  <defs>
    <linearGradient id="bg" x1="0%" y1="0%" x2="100%" y2="100%">
      <stop offset="0%" style="stop-color:#1f2937"/>
      <stop offset="100%" style="stop-color:#111827"/>
    </linearGradient>
    <linearGradient id="accent" x1="0%" y1="0%" x2="100%" y2="0%">
      <stop offset="0%" style="stop-color:#34d399"/>
      <stop offset="100%" style="stop-color:#14b8a6"/>
    </linearGradient>
  </defs>
  <rect width="600" height="400" fill="url(#bg)"/>
  <rect x="40" y="40" width="520" height="60" rx="12" fill="#374151" opacity="0.5"/>
  <text x="60" y="78" font-family="Arial,sans-serif" font-size="16" fill="#9ca3af">Drop an image here to classify...</text>
  <rect x="480" y="55" width="60" height="30" rx="8" fill="url(#accent)" opacity="0.8"/>
  <text x="510" y="75" text-anchor="middle" font-family="Arial,sans-serif" font-size="11" fill="#111827" font-weight="bold">Upload</text>
  <rect x="40" y="120" width="250" height="220" rx="16" fill="#374151" opacity="0.5"/>
  <rect x="55" y="135" width="220" height="150" rx="10" fill="#4b5563"/>
  <text x="165" y="218" text-anchor="middle" font-family="Arial,sans-serif" font-size="40" fill="#6b7280">🖼️</text>
  <text x="165" y="310" text-anchor="middle" font-family="Arial,sans-serif" font-size="12" fill="#9ca3af">Preview Area</text>
  <rect x="320" y="120" width="240" height="220" rx="16" fill="#374151" opacity="0.5"/>
  <text x="340" y="155" font-family="Arial,sans-serif" font-size="14" fill="#34d399" font-weight="bold">Top 3 Predictions</text>
  <rect x="340" y="170" width="200" height="45" rx="8" fill="#4b5563" opacity="0.6"/>
  <rect x="355" y="182" width="140" height="8" rx="4" fill="url(#accent)" opacity="0.7"/>
  <text x="510" y="198" text-anchor="end" font-family="Arial,sans-serif" font-size="12" fill="#34d399">94.2%</text>
  <rect x="340" y="225" width="200" height="45" rx="8" fill="#4b5563" opacity="0.6"/>
  <rect x="355" y="237" width="90" height="8" rx="4" fill="url(#accent)" opacity="0.4"/>
  <text x="510" y="253" text-anchor="end" font-family="Arial,sans-serif" font-size="12" fill="#9ca3af">3.8%</text>
  <rect x="340" y="280" width="200" height="45" rx="8" fill="#4b5563" opacity="0.6"/>
  <rect x="355" y="292" width="50" height="8" rx="4" fill="url(#accent)" opacity="0.25"/>
  <text x="510" y="308" text-anchor="end" font-family="Arial,sans-serif" font-size="12" fill="#9ca3af">1.2%</text>
  <text x="300" y="380" text-anchor="middle" font-family="Arial,sans-serif" font-size="16" fill="#34d399" font-weight="bold">Image Classification — MobileNetV2</text>
</svg>
